<?xml version="1.0" encoding="UTF-8"?><svg id="_層_2" xmlns="http://www.w3.org/2000/svg" viewBox="0 0 323.5 323.5"><defs><style>.cls-1{fill:#fff;}.cls-2{fill:#182a87;}.cls-2,.cls-3{isolation:isolate;}.cls-3{fill:#c82d3f;}.cls-4{fill:none;stroke:#fff;stroke-miterlimit:10;stroke-width:.5px;}</style></defs><g id="_層_2-2"><g><path class="cls-2" d="M323.25,161.75c0,65.32-38.78,121.59-94.58,147.02-.97,.44-1.94,.88-2.92,1.29-1.84,.81-3.7,1.57-5.58,2.3-16.9,6.56-35.17,10.36-54.27,10.84-1.38,.03-2.76,.05-4.15,.05s-2.86-.02-4.28-.05c-19.43-.51-38.02-4.45-55.16-11.24-2.88-1.14-5.71-2.36-8.5-3.66C38.56,282.65,.25,226.67,.25,161.75,.25,72.56,72.56,.25,161.75,.25s161.5,72.31,161.5,161.5Z"/><path class="cls-3" d="M225.75,142.06v168c-1.84,.81-3.7,1.57-5.58,2.3-16.9,6.56-35.17,10.36-54.27,10.84-1.38,.03-2.76,.05-4.15,.05V102.1h26.64c.6,.25,1.21,.51,1.82,.78,12.16,5.43,27.47,16.57,35.54,39.18Z"/><path class="cls-4" d="M323.25,161.75c0,65.32-38.78,121.59-94.58,147.02-.97,.44-1.94,.88-2.92,1.29-1.84,.81-3.7,1.57-5.58,2.3-16.9,6.56-35.17,10.36-54.27,10.84-1.38,.03-2.76,.05-4.15,.05s-2.86-.02-4.28-.05c-19.43-.51-38.02-4.45-55.16-11.24-2.88-1.14-5.71-2.36-8.5-3.66C38.56,282.65,.25,226.67,.25,161.75,.25,72.56,72.56,.25,161.75,.25s161.5,72.31,161.5,161.5Z"/><path class="cls-1" d="M166.56,69.83v-24.93h-9.64v24.93c-35.83,1.92-66.33,24.99-80.27,57.54h11.32c14.73-27.41,42.48-45.88,74.3-45.88s59.58,18.47,74.31,45.88h10.28c-13.94-32.55-44.46-55.63-80.3-57.54Z"/><path class="cls-1" d="M300.58,157.3h-31.51l7.84,14.53,2.03,3.77,8.77,16.22,.12,.22h-.1c.07,.73,.1,1.47,.1,2.21,0,12.8-9.77,23.16-21.83,23.16s-21.83-10.36-21.83-23.16c0-.74,.03-1.48,.1-2.21h-.1l.12-.22,8.75-16.21,2.04-3.78,7.85-14.53h-34.26v151.47c-.97,.44-1.94,.88-2.92,1.29-1.84,.81-3.7,1.57-5.58,2.3V153.14c-4.84-20.45-16.09-34.75-33.43-42.5-8.45-3.78-16.31-5.02-20.84-5.43v217.99c-1.38,.03-2.76,.05-4.15,.05s-2.86-.02-4.28-.05V105.2c-11.63,1.01-44.01,7.46-55.16,47.69v159.07c-2.88-1.14-5.71-2.36-8.5-3.66V157.3H57.35l7.84,14.53,2.03,3.77,8.77,16.22,.12,.22h-.1c.07,.73,.1,1.47,.1,2.21,0,12.8-9.77,23.16-21.83,23.16s-21.83-10.36-21.83-23.16c0-.74,.03-1.48,.1-2.21h-.1l.12-.22,8.75-16.21,2.04-3.78,7.85-14.53H23.57v-8.98H94.79c8.21-26.93,25.48-39.59,38.75-45.49,14.29-6.34,26.82-6.32,28.22-6.31,1.36,0,13.09-.03,26.63,5.58,.6,.25,1.21,.51,1.82,.78,12.16,5.43,27.47,16.57,35.54,39.18,.71,2,1.37,4.08,1.96,6.26h72.87v8.98Z"/></g></g></svg>